<svg width="1280" height="640" viewBox="0 0 1280 640" fill="none" xmlns="http://www.w3.org/2000/svg">
  <defs>
    <linearGradient id="bg" x1="0" y1="0" x2="1280" y2="640" gradientUnits="userSpaceOnUse">
      <stop offset="0" stop-color="#07111f"/>
      <stop offset="0.48" stop-color="#0f172a"/>
      <stop offset="1" stop-color="#111827"/>
    </linearGradient>
    <linearGradient id="accent" x1="240" y1="92" x2="1040" y2="540" gradientUnits="userSpaceOnUse">
      <stop stop-color="#38bdf8"/>
      <stop offset="0.46" stop-color="#22c55e"/>
      <stop offset="1" stop-color="#f59e0b"/>
    </linearGradient>
    <linearGradient id="screen" x1="460" y1="128" x2="824" y2="496" gradientUnits="userSpaceOnUse">
      <stop stop-color="#111827"/>
      <stop offset="1" stop-color="#020617"/>
    </linearGradient>
    <filter id="softGlow" x="-60" y="-60" width="1400" height="760" filterUnits="userSpaceOnUse" color-interpolation-filters="sRGB">
      <feGaussianBlur stdDeviation="26"/>
    </filter>
    <filter id="shadow" x="0" y="0" width="1280" height="640" filterUnits="userSpaceOnUse" color-interpolation-filters="sRGB">
      <feDropShadow dx="0" dy="22" stdDeviation="22" flood-color="#020617" flood-opacity="0.65"/>
    </filter>
    <pattern id="grid" width="48" height="48" patternUnits="userSpaceOnUse">
      <path d="M48 0H0V48" stroke="#334155" stroke-opacity="0.24"/>
    </pattern>
  </defs>

  <rect width="1280" height="640" rx="0" fill="url(#bg)"/>
  <rect width="1280" height="640" fill="url(#grid)" opacity="0.55"/>

  <g filter="url(#softGlow)" opacity="0.55">
    <circle cx="240" cy="168" r="140" fill="#0ea5e9"/>
    <circle cx="1002" cy="472" r="180" fill="#22c55e"/>
    <circle cx="968" cy="144" r="120" fill="#f59e0b"/>
  </g>

  <path d="M112 470C230 392 300 396 404 448C508 500 592 518 724 432C856 346 946 310 1168 378" stroke="url(#accent)" stroke-width="2.5" stroke-opacity="0.75"/>
  <path d="M126 196C258 256 356 256 476 184C596 112 708 98 836 178C964 258 1036 272 1156 226" stroke="#38bdf8" stroke-width="1.6" stroke-opacity="0.38"/>

  <g opacity="0.84">
    <circle cx="176" cy="472" r="5" fill="#38bdf8"/>
    <circle cx="404" cy="448" r="5" fill="#22c55e"/>
    <circle cx="724" cy="432" r="5" fill="#22c55e"/>
    <circle cx="1038" cy="344" r="5" fill="#f59e0b"/>
    <circle cx="1120" cy="366" r="5" fill="#f59e0b"/>
  </g>

  <g filter="url(#shadow)">
    <rect x="468" y="86" width="344" height="468" rx="44" fill="#020617" stroke="#475569" stroke-width="2"/>
    <rect x="490" y="126" width="300" height="386" rx="28" fill="url(#screen)" stroke="#1e293b"/>
    <rect x="594" y="104" width="92" height="8" rx="4" fill="#334155"/>
    <circle cx="714" cy="108" r="5" fill="#334155"/>
  </g>

  <g>
    <circle cx="640" cy="314" r="130" fill="#020617" stroke="#334155" stroke-width="1.5"/>
    <circle cx="640" cy="314" r="94" stroke="#334155" stroke-width="1.5" stroke-dasharray="8 10"/>
    <circle cx="640" cy="314" r="58" stroke="#334155" stroke-width="1.5" stroke-dasharray="6 8"/>
    <path d="M640 222C674 268 691 298 691 328C691 357 668 381 640 381C612 381 589 357 589 328C589 298 606 268 640 222Z" fill="url(#accent)"/>
    <circle cx="640" cy="320" r="26" fill="#020617" fill-opacity="0.88"/>
    <circle cx="640" cy="320" r="10" fill="#e2e8f0"/>
    <path d="M598 424H682" stroke="#22c55e" stroke-width="5" stroke-linecap="round"/>
    <path d="M612 444H668" stroke="#38bdf8" stroke-width="5" stroke-linecap="round"/>
  </g>

  <g font-family="Inter, Segoe UI, Arial, sans-serif">
    <text x="88" y="142" fill="#e5e7eb" font-size="54" font-weight="800" letter-spacing="0">ProxyPin WLOC</text>
    <text x="88" y="204" fill="#e5e7eb" font-size="54" font-weight="800" letter-spacing="0">Response Rewriter</text>
    <text x="92" y="252" fill="#94a3b8" font-size="22" font-weight="500">Local script for authorized iOS network-location testing</text>

    <g>
      <rect x="88" y="294" width="174" height="42" rx="8" fill="#0f172a" stroke="#334155"/>
      <text x="112" y="322" fill="#7dd3fc" font-size="16" font-weight="700">PROXYPIN SCRIPT</text>
      <rect x="276" y="294" width="132" height="42" rx="8" fill="#0f172a" stroke="#334155"/>
      <text x="300" y="322" fill="#86efac" font-size="16" font-weight="700">WLOC PATCH</text>
      <rect x="88" y="352" width="142" height="42" rx="8" fill="#0f172a" stroke="#334155"/>
      <text x="112" y="380" fill="#fbbf24" font-size="16" font-weight="700">LOCAL ONLY</text>
      <rect x="244" y="352" width="162" height="42" rx="8" fill="#0f172a" stroke="#334155"/>
      <text x="268" y="380" fill="#c4b5fd" font-size="16" font-weight="700">MIT LICENSE</text>
    </g>

    <text x="890" y="154" fill="#cbd5e1" font-size="18" font-weight="700">REQUEST</text>
    <text x="890" y="184" fill="#64748b" font-size="15">locationd -> Apple WLOC</text>
    <text x="890" y="242" fill="#cbd5e1" font-size="18" font-weight="700">REWRITE</text>
    <text x="890" y="272" fill="#64748b" font-size="15">gunzip -> patch coordinates</text>
    <text x="890" y="330" fill="#cbd5e1" font-size="18" font-weight="700">RESPONSE</text>
    <text x="890" y="360" fill="#64748b" font-size="15">preserve binary payload shape</text>
  </g>

  <g stroke-linecap="round" stroke-linejoin="round">
    <path d="M846 174H790" stroke="#38bdf8" stroke-width="3"/>
    <path d="M802 162L790 174L802 186" stroke="#38bdf8" stroke-width="3"/>
    <path d="M790 260H846" stroke="#22c55e" stroke-width="3"/>
    <path d="M834 248L846 260L834 272" stroke="#22c55e" stroke-width="3"/>
    <path d="M846 344H790" stroke="#f59e0b" stroke-width="3"/>
    <path d="M802 332L790 344L802 356" stroke="#f59e0b" stroke-width="3"/>
  </g>

  <g opacity="0.9">
    <rect x="886" y="402" width="286" height="86" rx="12" fill="#020617" stroke="#334155"/>
    <text x="910" y="434" fill="#94a3b8" font-family="Consolas, monospace" font-size="15">X-WLOC-ProxyPin: v5.3.0</text>
    <text x="910" y="460" fill="#86efac" font-family="Consolas, monospace" font-size="15">Patched-Locations: &gt; 0</text>
  </g>

  <text x="88" y="558" fill="#64748b" font-family="Inter, Segoe UI, Arial, sans-serif" font-size="16">For authorized testing and research only. Not a CVE, not a remote exploit.</text>
</svg>
